<svg xmlns="http://www.w3.org/2000/svg" width="48" height="48" viewBox="0 0 48 48">
  <path d="M10 16 L38 16 L38 18 Q36 20 38 22 Q36 24 38 26 Q36 28 38 30 L38 32 L10 32 L10 30 Q12 28 10 26 Q12 24 10 22 Q12 20 10 18 L10 16 Z" fill="none" stroke="hsl(6, 60%, 28%)" stroke-width="2.0" stroke-linecap="round" stroke-linejoin="round"/>
  <path d="M14 26 C12 24 12 20 18 20 C22 20 22 24 20 26 C18 28 16 28 14 26 Z" fill="none" stroke="hsl(6, 60%, 28%)" stroke-width="2.0" stroke-linecap="round" stroke-linejoin="round"/>
  <path d="M31 19 L33 19 L33 17 L35 17 L35 19 L37 19 L37 21 L35 21 L35 23 L33 23 L33 21 L31 21 Z" fill="none" stroke="hsl(6, 60%, 28%)" stroke-width="2.0" stroke-linecap="round" stroke-linejoin="round"/>
</svg>